<?xml version="1.0" encoding="UTF-8" standalone="no"?>
<!DOCTYPE svg PUBLIC "-//W3C//DTD SVG 1.1//EN" "http://www.w3.org/Graphics/SVG/1.1/DTD/svg11.dtd">
<svg version="1.1" xmlns="http://www.w3.org/2000/svg" xmlns:xlink="http://www.w3.org/1999/xlink" preserveAspectRatio="xMidYMid meet" viewBox="0 0 2102 246" width="2102" height="246"><defs><path d="M358.15 59.08L362.53 59.59L366.67 60.37L370.6 61.33L374.32 62.49L377.85 63.9L381.1 65.48L384.18 67.31L387.01 69.36L389.69 71.57L392.12 74.02L394.32 76.65L396.31 79.53L398.09 82.63L399.68 85.88L401.04 89.41L402.17 93.06L403.13 97.01L403.87 101.09L404.38 105.46L404.69 109.97L404.81 114.74L404.81 115.9L404.76 116.99L404.65 118.04L404.34 120.05L404.14 120.94L403.87 121.83L403.6 122.61L402.87 124.08L402.51 124.71L402.02 125.33L401.55 125.91L401.04 126.38L400.46 126.87L399.88 127.23L399.25 127.61L398.56 127.85L397.83 128.12L397.09 128.34L396.31 128.43L395.46 128.54L306.53 128.54L306.53 127.81L306.33 127.81L306.33 146.18L306.37 148.64L306.64 151.04L307 153.32L307.58 155.46L308.27 157.51L309.16 159.45L310.14 161.24L311.37 162.95L312.66 164.54L314.2 166.05L315.87 167.41L317.66 168.68L319.64 169.84L321.81 170.89L324.06 171.83L326.53 172.68L329.14 173.34L331.93 173.99L334.87 174.46L337.95 174.82L341.21 175.13L344.62 175.28L348.19 175.35L349.5 175.35L350.82 175.28L352.07 175.28L353.34 175.24L354.54 175.2L355.75 175.08L356.95 175.04L359.27 174.82L360.36 174.73L361.48 174.55L363.57 174.24L364.55 174.08L365.6 173.88L368.46 173.26L369.39 172.99L370.29 172.76L371.13 172.52L371.96 172.21L372.81 171.94L373.27 171.78L373.74 171.56L374.28 171.4L374.79 171.16L375.37 170.94L375.95 170.67L376.57 170.36L377.2 170.09L379.25 169L380.05 168.57L380.77 168.15L382.46 167.21L383.29 166.7L384.18 166.16L385.07 165.58L386.97 164.34L387.97 163.69L389.02 163.02L390.07 162.28L391.31 161.12L392.59 160.08L393.17 159.61L393.68 159.18L394.26 158.76L394.79 158.34L395.73 157.6L396.67 156.98L397.09 156.71L397.51 156.51L397.89 156.24L398.61 155.93L398.94 155.77L399.25 155.66L399.5 155.57L400.03 155.46L400.88 155.46L401.93 155.57L402.44 155.66L402.91 155.77L403.4 155.93L403.8 156.08L404.54 156.51L404.92 156.78L405.54 157.4L405.81 157.71L406.08 158.09L406.48 158.92L406.63 159.38L406.75 159.92L406.9 160.46L406.97 160.97L407.06 161.55L407.06 162.17L407.12 162.86L407.06 163.49L407.01 164.18L406.9 164.85L406.81 165.47L406.17 167.52L405.85 168.15L405.54 168.84L405.18 169.53L404.76 170.2L404.29 170.89L403.8 171.52L402.75 172.88L401.51 174.24L400.14 175.62L398.56 176.98L397.71 177.65L396.89 178.38L395.42 179.43L393.9 180.48L392.32 181.48L390.69 182.49L389.02 183.38L387.23 184.27L385.4 185.05L383.51 185.83L381.57 186.57L379.52 187.26L377.42 187.88L375.26 188.46L373.07 189.04L370.8 189.51L366.09 190.36L363.62 190.67L361.1 190.98L358.53 191.18L355.86 191.41L353.18 191.52L350.44 191.61L347.61 191.61L342.75 191.56L338.06 191.3L333.6 190.87L329.37 190.25L325.31 189.51L321.49 188.58L317.93 187.46L314.51 186.17L311.37 184.74L308.43 183.11L305.68 181.33L303.12 179.34L300.87 177.22L298.77 174.93L296.87 172.41L295.25 169.78L293.84 166.94L292.57 163.96L291.63 160.77L290.85 157.44L290.27 153.94L289.96 150.22L289.85 146.34L289.85 99.22L289.96 97.84L290.05 96.59L290.21 95.27L290.43 93.96L290.63 92.71L290.94 91.44L291.25 90.23L291.68 88.98L292.1 87.78L292.57 86.58L293.11 85.42L294.24 83.1L294.93 81.96L295.63 80.84L296.36 79.75L297.14 78.7L297.99 77.66L298.88 76.61L300.75 74.6L301.76 73.6L303.12 72.3L306.06 69.87L307.62 68.78L309.25 67.73L310.95 66.73L312.73 65.79L314.51 64.9L316.39 64.12L318.33 63.32L320.33 62.65L322.39 62L324.53 61.38L326.69 60.86L328.94 60.37L331.19 59.97L333.56 59.66L335.97 59.33L338.37 59.08L340.89 58.92L343.48 58.77L346.09 58.7L348.77 58.66L353.54 58.77L358.15 59.08ZM337.75 75.14L333.71 75.8L329.77 76.81L325.95 78.06L322.32 79.6L318.82 81.38L315.61 83.9L312.89 86.51L310.57 89.34L308.74 92.28L307.42 95.38L306.57 98.64L306.33 102.05L306.33 111.71L388.17 111.71L387.28 101.9L384.76 93.56L380.52 86.73L374.52 81.42L366.87 77.59L357.42 75.34L346.31 74.56L341.94 74.71L337.75 75.14Z" id="e1mBGvmzLN"></path><path d="M146.08 69.25C146.08 63.58 149.49 61.33 156.32 61.33C159.62 61.33 186.11 61.33 189.48 61.33C195.14 61.33 197.97 66.42 197.97 75.72C208.21 64.9 219.16 58.43 230.55 58.43C240.21 58.43 247.77 61.33 252.9 67C258.59 72.66 260.88 80.8 260.88 89.92C260.88 96.16 258.01 99.58 252.9 99.58C249.49 99.58 247.23 97.28 246.1 93.33C243.82 85.35 242.69 81.38 242.11 80.8C239.85 76.85 235.28 74.56 229.62 74.56C223.37 74.56 217.13 76.85 211.82 81.38C208.41 83.68 203.84 88.76 197.97 96.32C197.97 101.47 197.97 127.03 197.97 173.03C216.48 173.03 226.79 173.03 228.81 173.03C235.64 173.03 239.05 175.93 239.05 181.02C239.05 186.68 235.64 189.56 228.81 189.56C221.52 189.56 162.87 189.56 155.52 189.56C148.71 189.56 145.3 186.68 145.3 181.6C145.3 175.93 148.71 173.61 155.52 173.61C157.21 173.61 165.59 173.61 180.71 173.61C180.71 173.57 180.71 173.32 180.71 172.88C180.73 172.88 180.79 172.88 180.91 172.88C180.91 115.49 180.91 83.61 180.91 77.23C165.59 77.23 157.39 77.23 156.32 77.23C149.49 77.23 146.08 74.4 146.08 69.25Z" id="cwpt48kpw"></path><path d="M13.64 61.49C14.91 61.49 20.98 61.49 32.06 61.49C32.06 51.83 32.06 46.48 32.06 45.39C32.06 17.36 46.45 3.51 74.46 3.51C85.85 3.51 95.71 5.81 103.04 9.8C112.7 15.46 118.05 24.76 118.05 35.58C118.05 42.91 115.17 45.79 110.09 45.79C106.68 45.79 103.27 43.49 101.53 39.5C99.27 32.16 97.02 28.17 95.86 26.28C92.45 22.29 85.63 20.03 75.77 20.03C58.56 20.03 50.06 28.53 50.06 45.79C50.06 46.79 50.06 51.99 50.06 61.33C69.95 61.33 80.97 61.33 83.17 61.33C90.56 61.33 93.97 64.16 93.97 69.25C93.97 74.91 90.56 77.23 83.17 77.23C80.97 77.23 69.95 77.23 50.06 77.23C50.06 140.1 50.06 174.97 50.06 181.95C50.06 188.2 47.18 191.61 42.08 191.61C36.41 191.61 34.11 188.2 34.11 181.95C34.11 174.97 34.11 140.28 34.11 77.41C34.09 77.41 14.66 77.39 13.64 77.39C7.4 77.39 3.99 74.56 3.99 69.47C3.99 63.74 7.4 61.49 13.64 61.49Z" id="b30h03iYK"></path><path d="M501.92 59.08L506.29 59.59L510.44 60.37L514.36 61.33L518.09 62.49L521.61 63.9L524.87 65.48L527.95 67.31L530.78 69.36L533.45 71.57L535.88 74.02L538.09 76.65L540.08 79.53L541.86 82.63L543.44 85.88L544.8 89.41L545.94 93.06L546.9 97.01L547.64 101.09L548.15 105.46L548.46 109.97L548.57 114.74L548.57 115.9L548.53 116.99L548.42 118.04L548.1 120.05L547.9 120.94L547.64 121.83L547.37 122.61L546.63 124.08L546.28 124.71L545.79 125.33L545.32 125.91L544.8 126.38L544.22 126.87L543.64 127.23L543.02 127.61L542.33 127.85L541.59 128.12L540.86 128.34L540.08 128.43L539.23 128.54L450.3 128.54L450.3 127.81L450.1 127.81L450.1 146.18L450.19 148.64L450.41 151.04L450.83 153.32L451.35 155.46L452.04 157.51L452.93 159.45L453.91 161.24L455.14 162.95L456.5 164.54L457.97 166.05L459.64 167.41L461.43 168.68L463.41 169.84L465.57 170.89L467.83 171.83L470.3 172.68L472.91 173.34L475.7 173.99L478.64 174.46L481.72 174.82L484.97 175.13L488.39 175.28L491.95 175.35L493.27 175.35L494.58 175.28L495.83 175.28L497.1 175.24L498.31 175.2L499.51 175.08L500.72 175.04L503.04 174.82L504.13 174.73L505.24 174.55L508.39 174.08L509.37 173.88L510.33 173.66L511.33 173.46L512.22 173.26L513.16 172.99L514.05 172.76L514.9 172.52L515.73 172.21L516.57 171.94L517.04 171.78L517.51 171.56L518.04 171.4L518.56 171.16L519.14 170.94L519.72 170.67L520.34 170.36L520.97 170.09L522.35 169.38L523.08 169L523.82 168.57L524.6 168.15L525.38 167.68L526.23 167.21L527.05 166.7L527.95 166.16L528.84 165.58L530.73 164.34L531.74 163.69L532.78 163.02L533.83 162.28L535.08 161.12L536.35 160.08L536.93 159.61L537.45 159.18L538.03 158.76L538.56 158.34L539.5 157.6L540.43 156.98L540.86 156.71L541.28 156.51L541.66 156.24L542.37 155.93L542.71 155.77L543.02 155.66L543.27 155.57L543.8 155.46L544.65 155.46L545.7 155.57L546.21 155.66L546.68 155.77L547.17 155.93L547.57 156.08L548.31 156.51L548.68 156.78L549.31 157.4L549.58 157.71L549.84 158.09L550.25 158.92L550.4 159.38L550.51 159.92L550.67 160.46L550.74 160.97L550.83 161.55L550.83 162.17L550.89 162.86L550.83 163.49L550.78 164.18L550.67 164.85L550.58 165.47L549.93 167.52L549.62 168.15L549.31 168.84L548.95 169.53L548.1 170.89L547.57 171.52L546.52 172.88L545.27 174.24L543.91 175.62L542.33 176.98L541.48 177.65L540.66 178.38L539.18 179.43L537.67 180.48L536.09 181.48L534.46 182.49L532.78 183.38L531 184.27L529.17 185.05L527.28 185.83L525.34 186.57L523.28 187.26L521.19 187.88L519.03 188.46L516.84 189.04L514.57 189.51L509.86 190.36L507.39 190.67L504.87 190.98L502.3 191.18L499.67 191.41L494.21 191.61L491.37 191.61L486.51 191.56L481.83 191.3L477.37 190.87L473.13 190.25L469.07 189.51L465.31 188.58L461.69 187.46L458.28 186.17L455.14 184.74L452.19 183.11L449.45 181.33L446.93 179.34L444.63 177.22L442.54 174.93L440.64 172.41L439.01 169.78L437.61 166.94L436.4 163.96L435.4 160.77L434.62 157.44L434.04 153.94L433.73 150.22L433.62 146.34L433.62 99.22L433.73 97.84L433.82 96.59L433.97 95.27L434.2 93.96L434.4 92.71L434.71 91.44L435.02 90.23L435.45 88.98L435.87 87.78L436.34 86.58L436.87 85.42L438.01 83.1L438.7 81.96L439.39 80.84L440.13 79.75L440.91 78.7L441.76 77.66L442.65 76.61L444.52 74.6L445.53 73.6L446.89 72.3L449.83 69.87L451.39 68.78L453.02 67.73L454.71 66.73L456.5 65.79L458.28 64.9L460.15 64.12L462.09 63.32L464.1 62.65L466.15 62L468.29 61.38L470.46 60.86L472.71 60.37L474.96 59.97L477.32 59.66L479.73 59.33L482.14 59.08L484.66 58.92L487.25 58.77L489.86 58.7L492.53 58.66L497.31 58.77L501.92 59.08ZM481.52 75.14L477.48 75.8L473.53 76.81L469.72 78.06L466.09 79.6L462.58 81.38L459.22 83.9L456.39 86.51L454.07 89.34L452.35 92.28L451.08 95.38L450.34 98.64L450.1 102.05L450.1 111.71L531.94 111.71L531.05 101.9L528.53 93.56L524.29 86.73L518.29 81.42L510.64 77.59L501.19 75.34L490.08 74.56L485.71 74.71L481.52 75.14Z" id="biQNDfKqQ"></path><path d="M677.4 21.13C688.77 29.69 694.66 41.82 694.66 56.56C694.66 63.38 691.83 66.8 686.1 66.8C682.1 66.8 679.27 63.38 677.6 56.56C676.44 50.9 674.19 45.79 671.36 40.44C666.2 31.36 655.26 27.21 638.2 27.21C623.23 27.21 613 30.63 606.75 37.98C601.04 44.81 597.63 55.24 597.63 70.56C597.63 76.54 597.63 124.13 597.63 130.06C597.63 145.6 601.04 156.4 607.29 163.22C614.11 170.62 624.55 174.55 639.36 174.55C661.7 174.55 674.77 166.63 677.6 151.11C678.69 145.38 679.27 142.55 679.27 141.97C680.43 138.56 682.68 136.88 686.1 136.88C691.83 136.88 694.66 140.3 694.66 147.12C694.66 161.5 688.93 172.3 676.82 180.86C667.16 187.1 655.03 190.52 639.13 190.52C620.78 190.52 606.55 186.52 596.12 177.96C583.99 170.04 578.9 156.4 578.9 138.56C578.9 138.56 578.9 138.56 578.9 138.56C578.9 138.56 578.9 138.56 578.9 138.56C578.9 95.65 578.9 71.77 578.9 67C578.9 29.26 598.21 10.91 638.4 10.91C654.45 10.91 667.01 14.32 677.4 21.13Z" id="anyqg2i08"></path><path d="M792.04 58.97L798.06 59.82L803.73 60.95L808.88 62.49L813.65 64.32L817.96 66.53L821.79 69.05L825.2 71.92L828.12 75.07L830.64 78.64L832.7 82.47L834.28 86.66L835.44 91.24L836.11 96.05L836.33 101.25L836.33 148.28L836.11 153.48L835.44 158.29L834.32 162.86L832.76 167.06L830.76 170.89L828.35 174.39L825.45 177.6L822.15 180.48L818.38 183L814.19 185.21L809.5 187.06L804.42 188.58L798.91 189.73L792.94 190.56L786.54 191.1L779.71 191.25L772.46 191.18L765.68 190.78L759.4 189.98L753.62 188.89L748.34 187.42L743.5 185.59L739.15 183.42L735.27 180.9L731.86 178.03L728.87 174.82L726.39 171.25L724.34 167.37L722.78 163.13L721.66 158.49L721 153.56L720.77 148.28L720.77 101.25L721 96.05L721.66 91.24L722.82 86.66L724.41 82.47L726.44 78.64L728.96 75.07L731.9 71.92L735.31 69.05L739.15 66.53L743.45 64.32L748.18 62.49L753.38 60.95L759.04 59.82L765.06 58.97L771.57 58.43L778.55 58.28L785.53 58.43L792.04 58.97ZM765.28 75.14L760.02 76.07L755.32 77.39L751.1 79.06L747.44 81.16L744.34 83.57L741.82 86.42L739.82 89.56L738.41 93.06L737.52 97.01L737.25 101.25L737.25 148.28L737.52 152.52L738.41 156.4L739.82 159.96L741.87 163.13L744.46 165.9L747.6 168.3L751.32 170.31L755.63 171.98L760.51 173.19L765.95 174.08L772 174.5L778.55 174.55L785 174.5L790.88 174.08L796.28 173.3L801.05 172.1L805.31 170.51L808.99 168.53L812.14 166.16L814.7 163.38L816.71 160.19L818.11 156.62L819 152.63L819.27 148.28L819.27 101.25L819 97.01L818.11 93.06L816.71 89.56L814.66 86.42L812.02 83.57L808.88 81.16L805.11 79.06L800.74 77.39L795.77 76.07L790.26 75.14L784.1 74.56L777.39 74.4L771.1 74.56L765.28 75.14Z" id="a5KOieBKp"></path><path d="M970.8 3.88L971.42 4.08L972 4.39L972.54 4.7L973.05 5.08L973.52 5.51L974.37 6.44L974.75 7.02L975.06 7.65L975.37 8.34L975.64 9.01L976.04 10.59L976.35 12.38L976.46 14.36L976.53 15.41L976.53 183.79L976.46 184.58L976.42 185.31L976.35 186L976.04 187.25L975.88 187.83L975.64 188.37L975.42 188.88L974.79 189.84L974.05 190.57L973.63 190.93L973.21 191.2L972.69 191.47L972.23 191.71L971.69 191.93L971.11 192.09L969.86 192.29L969.22 192.36L968.08 192.36L966.81 192.2L966.38 192.09L966.03 191.93L965.65 191.82L965.29 191.62L964.98 191.47L964.67 191.24L964.35 190.98L963.82 190.46L963.55 190.15L962.93 189.04L962.77 188.63L962.62 188.14L962.5 187.67L962.35 187.21L962.3 186.69L962.3 185.89L962.26 185.47L962.26 185.11L962.19 184.69L962.19 184.33L962.15 183.91L962.15 183.48L962.08 183.06L962.04 182.59L961.99 182.17L961.99 181.7L961.88 180.76L961.88 180.23L961.83 179.76L961.77 179.18L961.77 178.09L961.72 177.51L961.72 176.23L960.36 177.08L959.09 177.93L957.8 178.75L955.37 180.23L954.27 180.96L953.12 181.65L951.02 182.9L950.02 183.48L949.08 184.06L948.14 184.58L945.62 186L944.89 186.36L944.15 186.78L942.79 187.41L941.63 187.94L941.05 188.14L940.2 188.48L939.31 188.79L938.42 189.04L936.55 189.57L933.54 190.19L932.49 190.42L930.39 190.73L928.18 191.04L927.09 191.15L924.79 191.35L923.63 191.4L922.43 191.47L921.27 191.51L920.07 191.55L915.5 191.55L913.4 191.51L911.41 191.4L909.41 191.24L907.47 191.09L905.53 190.82L903.7 190.57L900.02 189.93L896.56 189.1L894.82 188.63L893.2 188.14L891.57 187.59L888.42 186.43L886.91 185.73L885.44 185.07L884.01 184.33L882.6 183.53L881.24 182.75L879.86 181.9L878.46 180.92L875.73 178.71L874.51 177.55L873.3 176.35L872.17 175.08L871.1 173.78L870.12 172.4L869.16 171.04L867.48 168.12L866.75 166.58L866.12 165.02L865.5 163.39L864.96 161.76L864.5 160.02L864.14 158.24L863.8 156.45L863.56 154.63L863.34 152.73L863.25 150.79L863.25 98.74L863.34 96.8L863.56 94.97L863.76 93.19L864.07 91.41L864.5 89.67L864.92 87.99L865.43 86.37L866.01 84.78L866.64 83.27L867.37 81.75L868.11 80.28L868.96 78.85L869.89 77.49L870.85 76.18L871.9 74.86L872.95 73.66L874.11 72.45L875.31 71.29L877.92 69.11L879.35 68.1L880.6 67.26L881.87 66.47L883.23 65.69L884.65 64.96L886.06 64.27L887.53 63.58L890.56 62.44L892.15 61.86L895.4 60.9L898.75 60.07L900.49 59.76L902.27 59.45L904.06 59.18L905.88 58.92L909.56 58.6L911.46 58.49L913.4 58.45L917.9 58.45L920.42 58.56L921.63 58.6L922.9 58.65L924.06 58.76L925.26 58.87L926.36 58.96L927.52 59.12L929.72 59.45L930.77 59.61L932.87 60.01L933.87 60.23L934.81 60.43L937.64 61.23L938.49 61.55L939.38 61.86L940.2 62.17L941.1 62.48L941.94 62.86L942.84 63.22L943.73 63.64L944.66 64.07L946.45 65L949.28 66.59L950.24 67.14L953.07 69.04L955.06 70.4L956.01 71.14L957 71.87L958 72.67L959.98 74.35L959.98 15.41L960.05 14.36L960.14 12.38L960.47 10.59L960.63 9.81L960.88 9.01L961.1 8.34L961.41 7.65L961.72 7.02L962.08 6.44L962.46 5.98L962.88 5.51L963.31 5.08L963.82 4.7L964.29 4.39L964.82 4.08L965.4 3.88L966.65 3.57L967.28 3.5L968.75 3.5L969.44 3.57L970.8 3.88ZM913.82 75.82L911.19 76.06L908.63 76.33L906.11 76.76L903.74 77.29L901.42 77.85L899.28 78.58L897.23 79.39L895.29 80.32L893.51 81.33L891.46 82.8L889.52 84.36L887.8 86.05L886.26 87.84L884.9 89.67L883.76 91.65L882.76 93.75L882.02 95.96L881.49 98.27L881.13 100.64L881.02 103.16L881.02 148.38L881.13 150.99L881.44 153.47L881.91 155.83L882.65 158.08L883.54 160.18L884.65 162.19L886.01 164.06L887.58 165.8L889.32 167.43L891.3 168.83L893.51 170.21L895.45 171.11L897.45 171.93L899.55 172.67L901.76 173.4L904.01 174.03L906.42 174.56L908.89 175.03L911.5 175.41L914.18 175.66L916.97 175.81L919.84 175.88L924.46 175.77L926.73 175.61L928.92 175.41L933.22 174.76L935.28 174.36L937.28 173.83L939.22 173.25L941.05 172.62L942.79 171.89L944.24 170.88L945.78 169.83L947.34 168.74L948.92 167.54L950.55 166.33L952.22 165.02L953.96 163.66L955.68 162.23L957.46 160.71L959.31 159.13L961.14 157.5L961.14 91.56L959 90.02L956.91 88.62L954.9 87.19L952.91 85.88L951.02 84.67L949.24 83.58L947.5 82.53L945.87 81.64L944.35 80.86L942.95 80.17L941.63 79.63L939.74 78.92L937.84 78.27L935.9 77.69L933.92 77.18L931.93 76.76L929.88 76.44L927.78 76.13L925.73 75.91L923.57 75.75L919.26 75.66L916.54 75.71L913.82 75.82Z" id="k9tDk7T3W"></path><path d="M1076.05 59.08L1080.4 59.59L1084.55 60.37L1088.5 61.33L1092.22 62.49L1095.72 63.9L1099.05 65.48L1102.08 67.31L1104.96 69.36L1107.59 71.57L1109.99 74.02L1112.2 76.65L1114.25 79.53L1116.04 82.63L1117.62 85.88L1118.98 89.41L1120.12 93.06L1121.08 97.01L1121.81 101.09L1122.33 105.46L1122.64 109.97L1122.75 114.74L1122.71 115.9L1122.64 116.99L1122.55 118.04L1122.44 119.04L1122.24 120.05L1122.01 120.94L1121.75 121.83L1121.5 122.61L1121.19 123.35L1120.81 124.08L1120.39 124.71L1119.92 125.33L1119.45 125.91L1118.4 126.87L1117.13 127.61L1115.77 128.12L1114.99 128.34L1114.21 128.43L1113.36 128.54L1024.22 128.55L1024.21 146.18L1024.32 148.64L1024.52 151.04L1024.94 153.32L1025.48 155.46L1026.21 157.51L1027.04 159.45L1028.09 161.24L1029.25 162.95L1030.61 164.54L1032.08 166.05L1033.77 167.41L1035.6 168.68L1037.54 169.84L1039.68 170.89L1042 171.83L1044.41 172.68L1047.04 173.34L1049.83 173.99L1052.75 174.46L1055.85 174.82L1059.11 175.13L1062.52 175.28L1066.09 175.35L1067.4 175.35L1068.72 175.28L1069.97 175.28L1072.49 175.2L1073.69 175.08L1074.85 175.04L1077.15 174.82L1078.26 174.73L1079.35 174.55L1082.5 174.08L1084.51 173.66L1086.4 173.26L1087.29 172.99L1088.19 172.76L1089.08 172.52L1089.9 172.21L1091.17 171.78L1091.64 171.56L1092.16 171.4L1092.69 171.16L1093.27 170.94L1093.85 170.67L1094.47 170.36L1095.1 170.09L1096.46 169.38L1097.19 169L1097.93 168.57L1098.71 168.15L1099.51 167.68L1100.34 167.21L1101.19 166.7L1102.08 166.16L1102.97 165.58L1103.91 164.96L1105.91 163.69L1106.92 163.02L1107.97 162.28L1108.59 161.7L1109.26 161.12L1109.84 160.61L1110.49 160.08L1111.04 159.61L1111.62 159.18L1112.67 158.34L1113.16 157.98L1113.67 157.6L1114.14 157.29L1114.57 156.98L1114.99 156.71L1115.41 156.51L1115.77 156.24L1116.51 155.93L1116.82 155.77L1117.44 155.57L1117.71 155.5L1117.93 155.46L1118.76 155.46L1119.34 155.5L1119.87 155.57L1120.81 155.77L1121.28 155.93L1121.7 156.08L1122.13 156.31L1122.48 156.51L1122.8 156.78L1123.44 157.4L1123.69 157.71L1123.95 158.09L1124.38 158.92L1124.53 159.38L1124.69 159.92L1124.91 160.97L1124.96 161.55L1125 162.17L1125 163.49L1124.91 164.18L1124.85 164.85L1124.69 165.47L1124.53 166.16L1124.33 166.86L1124.07 167.52L1123.75 168.15L1123.44 168.84L1123.06 169.53L1122.24 170.89L1121.75 171.52L1121.23 172.21L1120.07 173.57L1118.02 175.62L1115.66 177.65L1114.77 178.38L1111.85 180.48L1110.26 181.48L1108.59 182.49L1106.92 183.38L1105.13 184.27L1103.28 185.05L1101.39 185.83L1099.45 186.57L1097.42 187.26L1095.32 187.88L1093.16 188.46L1090.95 189.04L1088.7 189.51L1086.4 189.94L1083.97 190.36L1081.52 190.67L1079 190.98L1076.41 191.18L1073.8 191.41L1068.34 191.61L1065.51 191.61L1060.62 191.56L1055.96 191.3L1051.5 190.87L1047.24 190.25L1043.25 189.51L1039.44 188.58L1035.8 187.46L1032.46 186.17L1029.25 184.74L1026.3 183.11L1023.58 181.33L1021.06 179.34L1018.77 177.22L1016.65 174.93L1014.82 172.41L1013.15 169.78L1011.72 166.94L1010.52 163.96L1009.51 160.77L1008.73 157.44L1008.22 153.94L1007.84 150.22L1007.73 146.34L1007.73 100.51L1007.79 99.22L1007.84 97.84L1007.95 96.59L1008.11 95.27L1008.31 93.96L1008.84 91.44L1009.2 90.23L1009.58 88.98L1010 87.78L1010.47 86.58L1010.98 85.42L1012.14 83.1L1012.83 81.96L1013.5 80.84L1014.24 79.75L1015.09 78.7L1015.87 77.66L1016.76 76.61L1018.65 74.6L1019.7 73.6L1021.06 72.3L1022.49 71.08L1024.01 69.87L1025.52 68.78L1027.15 67.73L1028.89 66.73L1030.61 65.79L1032.46 64.9L1034.29 64.12L1036.23 63.32L1038.23 62.65L1042.43 61.38L1044.57 60.86L1046.82 60.37L1049.09 59.97L1051.44 59.66L1053.87 59.33L1056.32 59.08L1058.79 58.92L1061.36 58.77L1063.99 58.7L1066.67 58.66L1071.48 58.77L1076.05 59.08ZM1055.69 75.14L1051.61 75.8L1047.67 76.81L1043.9 78.06L1040.22 79.6L1036.76 81.38L1033.35 83.9L1030.52 86.51L1028.24 89.34L1026.46 92.28L1025.21 95.38L1024.47 98.64L1024.21 102.05L1024.21 111.71L1106.07 111.71L1105.22 101.9L1102.66 93.56L1098.4 86.73L1092.42 81.42L1084.77 77.59L1075.32 75.34L1064.19 74.56L1059.89 74.71L1055.69 75.14Z" id="b19qZq5Xrj"></path><path d="M1251.51 21.13C1262.91 29.69 1268.77 41.82 1268.77 56.56C1268.77 63.38 1265.94 66.8 1260.23 66.8C1256.28 66.8 1253.45 63.38 1251.73 56.56C1250.57 50.9 1248.32 45.79 1245.49 40.44C1240.34 31.36 1229.37 27.21 1212.33 27.21C1197.37 27.21 1187.13 30.63 1180.89 37.98C1175.22 44.81 1171.81 55.24 1171.81 70.56C1171.81 76.54 1171.81 124.13 1171.81 130.06C1171.81 145.6 1175.22 156.4 1181.47 163.22C1188.29 170.62 1198.68 174.55 1213.47 174.55C1235.83 174.55 1248.9 166.63 1251.73 151.11C1252.87 145.38 1253.45 142.55 1253.45 141.97C1254.57 138.56 1256.86 136.88 1260.23 136.88C1265.94 136.88 1268.77 140.3 1268.77 147.12C1268.77 161.5 1263.11 172.3 1251 180.86C1241.27 187.1 1229.17 190.52 1213.27 190.52C1194.89 190.52 1180.69 186.52 1170.29 177.96C1158.7 170.04 1153.03 156.4 1153.03 138.56C1153.03 138.56 1153.03 138.56 1153.03 138.56C1153.03 138.56 1153.03 138.56 1153.03 138.56C1153.03 95.65 1153.03 71.77 1153.03 67C1153.03 29.26 1172.55 10.91 1212.53 10.91C1228.63 10.91 1241.12 14.32 1251.51 21.13Z" id="c72us4s7L1"></path><path d="M1356.56 57.23L1358.5 57.34L1360.33 57.5L1362.12 57.61L1363.86 57.81L1365.57 57.96L1367.27 58.23L1368.9 58.43L1370.46 58.77L1371.97 59.01L1373.45 59.39L1374.92 59.7L1376.28 60.06L1377.71 60.48L1379.02 60.91L1380.27 61.33L1381.54 61.8L1382.74 62.34L1383.95 62.8L1385.11 63.38L1386.2 63.9L1387.25 64.48L1388.3 65.1L1389.46 65.95L1390.55 66.84L1391.6 67.73L1392.6 68.74L1393.56 69.72L1394.5 70.83L1395.39 71.92L1396.24 73.08L1397.02 74.29L1397.75 75.54L1398.42 76.81L1399.11 78.12L1400.27 80.96L1400.79 82.43L1401.25 83.9L1401.68 85.46L1402.06 87.04L1402.37 88.67L1402.64 90.34L1402.84 92.08L1403.04 93.87L1403.15 95.65L1403.26 97.48L1403.26 158.49L1403.31 159.3L1403.31 160.08L1403.42 161.55L1403.53 162.91L1403.62 163.6L1403.73 164.22L1403.84 164.8L1404 165.43L1404.09 166.01L1404.42 167.06L1404.62 167.59L1405.25 169L1405.47 169.42L1405.71 169.84L1405.98 170.2L1406.61 170.94L1407.3 171.63L1407.41 171.67L1407.56 171.78L1407.65 171.87L1407.88 171.94L1408.03 172.05L1408.46 172.25L1408.7 172.41L1409.24 172.61L1409.55 172.76L1409.86 172.88L1410.98 173.34L1412.23 173.84L1412.69 173.99L1413.16 174.19L1413.65 174.35L1414.12 174.55L1414.63 174.77L1415.21 174.97L1415.53 175.08L1416.17 175.4L1416.42 175.62L1416.69 175.78L1417.22 176.18L1417.42 176.44L1417.62 176.67L1417.84 176.91L1418 177.22L1418.16 177.49L1418.47 178.12L1418.58 178.5L1418.69 178.81L1418.78 179.23L1418.89 179.59L1418.94 180.01L1419.05 180.44L1419.09 180.9L1419.09 181.37L1419.16 181.86L1419.16 183.96L1419.05 184.47L1419 184.9L1418.89 185.36L1418.78 185.79L1418.63 186.21L1418.47 186.57L1418.27 186.95L1418.05 187.26L1417.53 187.88L1417.27 188.15L1416.95 188.42L1415.84 189.04L1415.01 189.36L1414.54 189.47L1414.01 189.56L1412.96 189.67L1412.38 189.73L1411.33 189.73L1411.13 189.67L1410.98 189.67L1410.75 189.62L1410.55 189.62L1410.33 189.56L1409.28 189.36L1409.04 189.24L1408.7 189.2L1408.39 189.09L1408.08 189.04L1406.98 188.73L1406.56 188.62L1406.2 188.51L1405.78 188.42L1405.31 188.31L1404.89 188.15L1404.42 188.04L1402.95 187.53L1402.26 187.26L1401.59 187.06L1400.94 186.79L1399.69 186.37L1399.11 186.17L1398.53 185.99L1398.02 185.79L1397.53 185.63L1397.02 185.48L1396.59 185.32L1396.12 185.16L1395.7 185.05L1395.34 184.9L1394.97 184.78L1394.34 184.58L1393.56 184.27L1393.34 184.2L1393.18 184.12L1393.03 184.05L1392.67 184L1392.33 183.96L1391.98 183.85L1391.66 183.74L1391.35 183.58L1391.09 183.38L1390.77 183.16L1390.51 182.96L1390.24 182.69L1389.99 182.38L1389.72 182.11L1389.5 181.75L1389.3 181.44L1389.03 181.02L1388.83 180.64L1388.68 180.24L1388.45 179.81L1388.25 179.34L1387.94 178.38L1387.32 176.29L1387.14 175.71L1384.84 177.29L1382.63 178.76L1381.59 179.5L1379.6 180.75L1378.64 181.37L1376.86 182.53L1375.19 183.58L1374.4 184.05L1373.67 184.47L1372.31 185.32L1371.62 185.68L1371.04 186.06L1369.36 186.88L1368.9 187.1L1368.05 187.53L1367.63 187.62L1366.96 187.95L1366.27 188.15L1364.79 188.66L1362.43 189.31L1361.65 189.47L1360.8 189.67L1359.98 189.82L1358.19 190.14L1357.3 190.25L1356.41 190.4L1353.58 190.72L1352.57 190.78L1351.57 190.87L1350.57 190.94L1349.52 190.98L1348.54 191.03L1343.65 191.03L1342.03 190.98L1340.44 190.94L1337.3 190.72L1334.26 190.4L1332.79 190.2L1331.32 189.94L1328.49 189.4L1325.77 188.78L1324.45 188.42L1323.14 188L1321.87 187.57L1320.62 187.1L1318.21 186.17L1317.05 185.59L1315.89 185.05L1314.8 184.47L1313.68 183.85L1312.63 183.22L1311.59 182.53L1310.38 181.71L1309.22 180.86L1307.04 178.96L1306.03 178.03L1305.07 177.02L1304.14 175.98L1303.29 174.93L1302.47 173.84L1301.68 172.68L1300.99 171.52L1300.3 170.31L1299.68 169.11L1299.1 167.84L1298.59 166.59L1298.12 165.27L1297.27 162.55L1296.96 161.17L1296.69 159.76L1296.27 156.82L1296.07 153.79L1296.07 150.64L1296.15 149.1L1296.27 147.54L1296.49 146.07L1297 143.13L1297.74 140.3L1298.21 138.94L1299.25 136.3L1299.9 134.99L1300.53 133.74L1302 131.33L1302.78 130.17L1303.62 129.06L1304.52 127.96L1305.5 126.92L1306.46 125.91L1307.51 124.93L1308.6 123.97L1310.92 122.19L1312.17 121.36L1314.37 119.78L1315.53 119.04L1317.94 117.68L1320.46 116.41L1321.78 115.86L1324.39 114.79L1325.77 114.32L1328.6 113.49L1330.01 113.11L1331.48 112.76L1332.95 112.44L1334.42 112.18L1335.94 111.91L1337.45 111.71L1339.04 111.55L1340.55 111.4L1342.18 111.28L1343.76 111.17L1345.39 111.13L1348.38 111.13L1349.74 111.17L1351.15 111.22L1353.98 111.44L1355.41 111.6L1356.88 111.75L1358.35 111.95L1359.87 112.22L1361.34 112.44L1362.85 112.76L1364.37 113L1365.95 113.34L1369.1 114.07L1373.98 115.32L1375.61 115.79L1377.33 116.26L1379.02 116.79L1380.74 117.3L1382.48 117.88L1384.26 118.46L1386.05 119.09L1386.05 99L1386 97.84L1385.93 96.74L1385.84 95.65L1385.69 94.54L1385.47 93.56L1385.26 92.49L1384.95 91.5L1384.64 90.55L1384.26 89.61L1383.84 88.72L1383.37 87.82L1382.32 86.15L1381.7 85.3L1381.07 84.57L1380.38 83.79L1378.91 82.43L1378.06 81.74L1376.28 80.49L1375.34 79.91L1374.34 79.37L1373.29 78.86L1372.2 78.32L1371.46 78.01L1369.88 77.39L1366.53 76.34L1363.86 75.72L1362.9 75.54L1362.01 75.38L1361.02 75.23L1360.07 75.07L1359.13 74.98L1357.14 74.76L1356.1 74.65L1355.09 74.6L1354.04 74.49L1353 74.44L1351.95 74.44L1350.9 74.4L1346.17 74.4L1343.7 74.49L1341.29 74.6L1339.04 74.82L1336.87 75.07L1334.78 75.38L1332.84 75.72L1330.94 76.12L1329.16 76.61L1327.49 77.17L1325.92 77.74L1324.39 78.39L1322.98 79.11L1321.67 79.84L1320.46 80.69L1319.35 81.54L1318.3 82.47L1317.36 83.48L1316.51 84.57L1315.73 85.68L1315.11 86.82L1314.48 88.09L1313.99 89.41L1313.59 90.77L1313.28 92.17L1313.17 92.86L1313.01 93.49L1312.79 94.65L1312.59 95.7L1312.39 96.63L1312.28 97.06L1312.21 97.48L1312.12 97.84L1312.05 98.22L1311.97 98.53L1311.9 98.84L1311.81 99.38L1311.7 99.8L1311.7 100L1311.65 100.16L1311.65 100.31L1311.59 100.42L1311.59 100.69L1311.43 101.05L1311.12 101.67L1310.96 101.94L1310.54 102.48L1310.38 102.72L1310.11 102.94L1309.91 103.14L1309.65 103.37L1309.45 103.52L1309.18 103.68L1308.87 103.84L1308.6 103.99L1308.29 104.08L1308.02 104.19L1307.71 104.3L1307.35 104.42L1307.04 104.46L1306.66 104.57L1306.3 104.62L1305.92 104.62L1305.56 104.66L1304.09 104.66L1303.47 104.62L1302.2 104.42L1301.62 104.3L1300.06 103.68L1299.57 103.37L1299.1 103.1L1298.67 102.72L1298.27 102.41L1297.54 101.58L1297.22 101.09L1296.69 100.16L1296.42 99.58L1296.27 99L1296.07 98.42L1295.91 97.79L1295.8 97.17L1295.75 96.48L1295.69 95.74L1295.69 94.02L1295.75 92.98L1295.8 91.97L1295.95 90.97L1296.07 89.99L1296.49 87.98L1297 86L1297.31 84.99L1297.63 84.06L1298.01 83.05L1298.43 82.12L1298.9 81.11L1299.83 79.22L1301.57 76.38L1302.2 75.49L1302.89 74.56L1305.07 71.88L1305.92 70.99L1306.86 69.87L1309.07 67.89L1310.27 66.95L1312.9 65.17L1314.33 64.37L1315.78 63.58L1317.36 62.85L1318.94 62.16L1320.62 61.53L1322.4 60.91L1324.19 60.37L1326.08 59.86L1328.02 59.39L1330.01 58.97L1332.06 58.59L1334.15 58.23L1338.57 57.7L1340.87 57.5L1343.23 57.34L1345.64 57.23L1348.11 57.18L1350.63 57.14L1352.62 57.14L1354.62 57.18L1356.56 57.23ZM1332.48 130.33L1325.66 132.74L1320.35 136.19L1316.51 140.61L1314.22 146L1313.48 152.43L1313.68 155.77L1314.33 158.92L1315.42 161.9L1316.94 164.65L1318.88 167.06L1321.35 169.11L1324.3 170.78L1326.82 172.14L1329.58 173.3L1332.57 174.24L1335.78 174.97L1339.19 175.51L1342.81 175.82L1346.64 175.93L1350.01 175.82L1353.24 175.62L1356.41 175.2L1359.49 174.55L1362.5 173.77L1365.48 172.68L1368.41 171.36L1370.41 170.2L1372.62 168.73L1375.07 167.1L1377.71 165.27L1380.54 163.22L1383.48 161.01L1386.58 158.67L1386.58 134.63L1381.23 133L1375.88 131.64L1370.57 130.48L1365.37 129.59L1360.29 128.9L1355.36 128.5L1350.63 128.39L1340.82 128.86L1332.48 130.33Z" id="b1jB9J5DCn"></path><path d="M1499.86 72.86C1504.41 67.15 1508.4 63.74 1512.4 62.07C1516.32 59.82 1522.05 58.66 1528.45 58.66C1547.96 58.66 1558.2 68.31 1558.2 87.24C1558.2 96.54 1558.2 170.78 1558.2 180.08C1558.2 188.04 1555.37 191.45 1549.7 191.45C1543.97 191.45 1541.72 188.04 1541.72 180.08C1541.72 171.36 1541.72 101.83 1541.72 93.13C1541.72 81.22 1536.64 74.76 1526.78 74.76C1519.38 74.76 1511.82 79.28 1505.57 88.03C1505.57 97.28 1505.57 171.56 1505.57 180.86C1505.57 188.78 1502.7 192.19 1497.59 192.19C1492.46 192.19 1489.63 188.78 1489.63 180.86C1489.63 172.25 1489.63 103.61 1489.63 95.01C1489.63 81.74 1483.96 75.49 1473.51 75.49C1466.75 75.49 1460.28 80.06 1453.48 88.76C1453.48 98.02 1453.48 171.78 1453.48 181.02C1453.48 189 1450.63 192.41 1444.92 192.41C1439.25 192.41 1437 189 1437 181.02C1437 169.62 1437 78.55 1437 67.15C1437 61.49 1439.25 59.24 1443.82 59.24C1446.08 59.24 1448.33 60.91 1449.49 64.32C1450.63 65.84 1451.16 68.67 1451.16 72.08C1451.16 72.08 1451.16 72.08 1451.16 72.08C1451.16 72.08 1451.16 72.08 1451.16 72.08C1456.51 66.42 1459.92 63 1461.4 61.85C1464.81 59.59 1469.36 58.43 1475.82 58.43C1484.9 58.43 1493.04 63 1499.86 72.86Z" id="bRozRYGOe"></path><path d="M1591.9 57.81L1592.21 57.88L1592.83 58.08L1593.14 58.23L1593.41 58.39L1593.72 58.54L1594.04 58.77L1594.3 58.97L1594.62 59.24L1594.88 59.48L1595.2 59.75L1595.71 60.37L1596.24 61.11L1596.51 61.53L1596.76 61.91L1596.98 62.38L1597.25 62.8L1597.29 63.23L1597.49 64.05L1597.65 64.52L1597.76 64.94L1597.92 65.37L1598.03 65.79L1598.18 66.22L1598.34 66.68L1598.81 67.93L1598.96 68.4L1599.28 69.25L1599.39 69.67L1599.54 70.1L1599.75 70.92L1599.92 71.3L1599.97 71.72L1600.08 72.08L1602.6 70.88L1607.53 68.58L1609.89 67.51L1612.23 66.53L1614.51 65.57L1616.76 64.68L1618.97 63.85L1621.11 63.12L1623.2 62.38L1625.26 61.76L1627.24 61.11L1629.25 60.6L1633.02 59.66L1634.87 59.28L1636.58 58.97L1638.32 58.7L1640 58.54L1641.62 58.39L1643.25 58.28L1644.77 58.28L1649.45 58.39L1653.84 58.66L1658.06 59.12L1662.03 59.75L1665.82 60.6L1669.39 61.6L1672.69 62.8L1675.83 64.16L1678.73 65.68L1681.41 67.42L1683.86 69.36L1686.11 71.41L1688.16 73.66L1689.99 76.12L1691.62 78.75L1693 81.54L1694.21 84.46L1695.14 87.62L1695.88 90.92L1696.46 94.38L1696.77 98.02L1696.88 101.83L1696.88 149.37L1696.82 151.27L1696.73 153.05L1696.57 154.84L1696.35 156.55L1696.08 158.29L1695.72 159.92L1695.3 161.55L1694.83 163.13L1694.3 164.65L1693.74 166.12L1693.09 167.59L1692.36 169L1691.58 170.42L1690.73 171.78L1689.84 173.1L1688.9 174.35L1687.9 175.62L1686.8 176.82L1685.64 178.03L1684.48 179.19L1683.24 180.28L1681.92 181.37L1680.72 182.33L1679.51 183.16L1678.2 184L1676.88 184.78L1675.52 185.52L1674.16 186.21L1672.69 186.88L1671.22 187.46L1669.7 188.04L1666.56 189.09L1663.19 189.94L1661.52 190.29L1659.73 190.63L1657.95 190.87L1654.27 191.3L1652.37 191.45L1650.43 191.56L1648.49 191.61L1644.1 191.61L1641.67 191.52L1639.33 191.34L1637.01 191.18L1634.71 190.94L1632.44 190.63L1630.25 190.25L1625.84 189.31L1623.67 188.73L1621.58 188.15L1619.48 187.46L1617.43 186.72L1615.4 185.9L1613.39 185.05L1611.41 184.12L1609.47 183.11L1607.53 182.06L1605.63 180.97L1603.74 179.81L1601.91 178.54L1600.08 177.22L1600.08 232.06L1600.01 233.11L1599.92 234.11L1599.81 235L1599.66 235.9L1599.43 236.74L1599.23 237.52L1598.96 238.3L1598.7 239L1598.34 239.69L1598.03 240.24L1597.6 240.82L1597.25 241.29L1596.76 241.78L1596.29 242.18L1595.78 242.56L1595.24 242.83L1594.66 243.08L1594.08 243.3L1593.46 243.41L1592.79 243.5L1591.4 243.5L1590.78 243.46L1590.16 243.3L1589.58 243.14L1589 242.92L1587.95 242.3L1587.48 241.94L1587.01 241.52L1586.59 240.98L1586.21 240.47L1585.85 239.89L1585.54 239.26L1585.27 238.57L1585 237.79L1584.8 237.01L1584.58 236.16L1584.43 235.23L1584.34 234.27L1584.22 233.22L1584.18 232.17L1584.18 69.14L1584.22 68.09L1584.27 67.15L1584.38 66.22L1584.49 65.32L1584.65 64.48L1584.85 63.7L1585.07 62.96L1585.32 62.22L1585.85 60.95L1586.16 60.44L1586.54 59.91L1586.9 59.44L1587.32 59.08L1587.79 58.7L1588.22 58.39L1588.73 58.12L1589.78 57.81L1590.36 57.7L1591.32 57.7L1591.63 57.76L1591.9 57.81ZM1636.85 75.23L1634.49 75.38L1632.19 75.6L1629.98 75.92L1627.89 76.23L1625.84 76.65L1623.9 77.17L1622 77.74L1620.17 78.39L1618.43 79.11L1616.92 79.8L1615.33 80.64L1613.77 81.58L1612.14 82.67L1610.52 83.94L1608.84 85.3L1607.1 86.82L1605.32 88.45L1603.49 90.19L1601.53 92.08L1599.5 94.07L1599.5 159.45L1600.08 159.45L1600.08 159.23L1604.78 162.02L1609.36 164.54L1613.77 166.86L1618.01 168.84L1622.11 170.58L1626.1 171.98L1629.92 173.19L1633.55 174.15L1637.05 174.82L1640.42 175.2L1643.63 175.35L1646.4 175.28L1649.07 175.2L1651.66 174.93L1654.16 174.62L1656.59 174.24L1658.88 173.72L1661.09 173.14L1663.19 172.41L1665.2 171.63L1667.07 170.67L1668.81 169.69L1670.9 168.37L1672.73 166.94L1674.36 165.43L1675.79 163.8L1676.99 162.06L1678 160.23L1678.78 158.29L1679.4 156.31L1679.87 154.14L1680.09 151.89L1680.2 149.57L1680.2 102.05L1680.09 99.31L1679.82 96.74L1679.31 94.38L1678.62 92.13L1677.68 90.03L1676.57 88.03L1675.21 86.2L1673.69 84.52L1671.91 83.01L1669.9 81.54L1667.72 80.26L1665.93 79.37L1664.04 78.55L1662.03 77.86L1659.93 77.23L1657.68 76.65L1655.32 76.18L1652.86 75.8L1650.28 75.49L1647.6 75.29L1644.84 75.18L1641.94 75.14L1639.37 75.18L1636.85 75.23Z" id="a28HN0pjA3"></path><path d="M1817.81 5.26C1818.98 6.41 1820.14 8.08 1820.14 9.76C1820.15 12.66 1816.75 16.59 1810.45 23.05C1784.22 48.31 1771.02 79.25 1771.11 116.55C1771.21 157.83 1785.09 190.98 1812.07 216.67C1817.74 221.75 1820.07 225.73 1820.08 229.14C1820.08 230.82 1818.93 232.56 1817.77 234.23C1816.68 235.4 1814.36 236.56 1812.69 236.56C1806.45 236.58 1797.71 229.2 1786.3 214.84C1764.1 187.62 1754.06 157.56 1753.49 116.6C1752.97 75.61 1765.82 47.82 1790.98 19.12C1800.03 8.87 1807.57 3.54 1812.73 3.53C1814.4 3.53 1816.14 4.1 1817.81 5.26Z" id="fqU6sHnJo"></path><path d="M1955.61 123.94C1945.76 121.42 1986.21 73.63 1914.31 16.41C1914.31 16.41 1923.75 46.38 1876.18 113.26C1828.59 180.12 1897.34 219.94 1897.34 219.94C1897.34 219.94 1865.08 202.75 1902.58 141.54C1909.3 130.43 1918.08 120.37 1928.99 97.74C1928.99 97.74 1938.64 111.36 1933.6 140.91C1926.07 185.56 1966.29 172.78 1966.92 173.4C1980.97 189.95 1955.28 219.03 1953.72 219.94C1952.16 220.83 2027.08 174.87 1973.85 105.7C1970.21 109.35 1965.47 126.46 1955.61 123.94Z" id="bLWhmaep"></path><path d="M2034.68 5.23C2033.52 6.38 2032.35 8.05 2032.35 9.73C2032.34 12.63 2035.74 16.56 2042.04 23.02C2068.27 48.28 2081.47 79.22 2081.38 116.52C2081.28 157.8 2067.4 190.95 2040.43 216.64C2034.75 221.72 2032.42 225.7 2032.41 229.11C2032.41 230.79 2033.57 232.53 2034.72 234.2C2035.81 235.37 2038.13 236.53 2039.8 236.53C2046.04 236.55 2054.78 229.17 2066.19 214.81C2088.39 187.59 2098.43 157.53 2099 116.57C2099.52 75.58 2086.67 47.79 2061.52 19.09C2052.46 8.84 2044.92 3.51 2039.77 3.5C2038.09 3.5 2036.35 4.07 2034.68 5.23Z" id="j3k4u6qgVQ"></path></defs><g><g><g><g><use xlink:href="#e1mBGvmzLN" opacity="1" fill="#ffffff" fill-opacity="1"></use><g><use xlink:href="#e1mBGvmzLN" opacity="1" fill-opacity="0" stroke="#000000" stroke-width="1" stroke-opacity="0"></use></g></g><g><use xlink:href="#cwpt48kpw" opacity="1" fill="#ffffff" fill-opacity="1"></use><g><use xlink:href="#cwpt48kpw" opacity="1" fill-opacity="0" stroke="#000000" stroke-width="1" stroke-opacity="0"></use></g></g><g><use xlink:href="#b30h03iYK" opacity="1" fill="#ffffff" fill-opacity="1"></use><g><use xlink:href="#b30h03iYK" opacity="1" fill-opacity="0" stroke="#000000" stroke-width="1" stroke-opacity="0"></use></g></g><g><use xlink:href="#biQNDfKqQ" opacity="1" fill="#ffffff" fill-opacity="1"></use><g><use xlink:href="#biQNDfKqQ" opacity="1" fill-opacity="0" stroke="#000000" stroke-width="1" stroke-opacity="0"></use></g></g><g><use xlink:href="#anyqg2i08" opacity="1" fill="#ffffff" fill-opacity="1"></use><g><use xlink:href="#anyqg2i08" opacity="1" fill-opacity="0" stroke="#000000" stroke-width="1" stroke-opacity="0"></use></g></g><g><use xlink:href="#a5KOieBKp" opacity="1" fill="#ffffff" fill-opacity="1"></use><g><use xlink:href="#a5KOieBKp" opacity="1" fill-opacity="0" stroke="#000000" stroke-width="1" stroke-opacity="0"></use></g></g><g><use xlink:href="#k9tDk7T3W" opacity="1" fill="#ffffff" fill-opacity="1"></use><g><use xlink:href="#k9tDk7T3W" opacity="1" fill-opacity="0" stroke="#000000" stroke-width="1" stroke-opacity="0"></use></g></g><g><use xlink:href="#b19qZq5Xrj" opacity="1" fill="#ffffff" fill-opacity="1"></use><g><use xlink:href="#b19qZq5Xrj" opacity="1" fill-opacity="0" stroke="#000000" stroke-width="1" stroke-opacity="0"></use></g></g><g><use xlink:href="#c72us4s7L1" opacity="1" fill="#ffffff" fill-opacity="1"></use><g><use xlink:href="#c72us4s7L1" opacity="1" fill-opacity="0" stroke="#000000" stroke-width="1" stroke-opacity="0"></use></g></g><g><use xlink:href="#b1jB9J5DCn" opacity="1" fill="#ffffff" fill-opacity="1"></use><g><use xlink:href="#b1jB9J5DCn" opacity="1" fill-opacity="0" stroke="#000000" stroke-width="1" stroke-opacity="0"></use></g></g><g><use xlink:href="#bRozRYGOe" opacity="1" fill="#ffffff" fill-opacity="1"></use><g><use xlink:href="#bRozRYGOe" opacity="1" fill-opacity="0" stroke="#000000" stroke-width="1" stroke-opacity="0"></use></g></g><g><use xlink:href="#a28HN0pjA3" opacity="1" fill="#ffffff" fill-opacity="1"></use><g><use xlink:href="#a28HN0pjA3" opacity="1" fill-opacity="0" stroke="#000000" stroke-width="1" stroke-opacity="0"></use></g></g><g><use xlink:href="#fqU6sHnJo" opacity="1" fill="#ffffff" fill-opacity="1"></use><g><use xlink:href="#fqU6sHnJo" opacity="1" fill-opacity="0" stroke="#000000" stroke-width="1" stroke-opacity="0"></use></g></g><g><use xlink:href="#bLWhmaep" opacity="1" fill="#ffffff" fill-opacity="1"></use><g><use xlink:href="#bLWhmaep" opacity="1" fill-opacity="0" stroke="#000000" stroke-width="1" stroke-opacity="0"></use></g></g><g><use xlink:href="#j3k4u6qgVQ" opacity="1" fill="#ffffff" fill-opacity="1"></use><g><use xlink:href="#j3k4u6qgVQ" opacity="1" fill-opacity="0" stroke="#000000" stroke-width="1" stroke-opacity="0"></use></g></g></g></g></g></svg>