<svg xmlns="http://www.w3.org/2000/svg" xmlns:xlink="http://www.w3.org/1999/xlink" width="500" height="500" version="1.1" viewBox="0 0 500 500"><title>Slice 1</title><desc>Created with Sketch.</desc><g id="Page-1" fill="none" fill-rule="evenodd" stroke="none" stroke-width="1"><g id="fcc_puck_500_social" fill-rule="nonzero"><polygon id="background" fill="#006400" points="0 0 500 0 500 500 0 500"/><g id="logo" fill="#FFF" transform="translate(62.752988, 123.000000)"><path id="b1eiso1pZy" d="M301.942211,7.29 C301.932271,10.44 305.61753,14.7 312.410359,21.72 C340.776892,49.12 355.039841,82.7 354.940239,123.19 C354.840637,167.99 339.830677,203.97 310.667331,231.85 C304.541833,237.35 302.021912,241.68 302.011952,245.38 C302.011952,247.2 303.256972,249.09 304.511952,250.91 C305.687251,252.17 308.187251,253.430037 310,253.430037 C316.743028,253.45 326.185259,245.44 338.515936,229.86 C362.51992,200.32 373.376494,167.7 373.984064,123.24 C374.551793,78.76 360.657371,48.59 333.466135,17.45 C323.685259,6.33 315.527888,0.54 309.960159,0.53 C308.157371,0.53 306.2749,1.15 304.462151,2.41 C303.207171,3.66 301.942211,5.47 301.942211,7.29 Z"/><path id="a4SjJqq7kK" d="M174.35259,14.54 C174.35259,14.54 184.551793,47.07 133.13745,119.65 C81.6932271,192.21 156.005976,235.43 156.005976,235.43 C156.005976,235.43 121.135458,216.77 161.673307,150.34 C168.934263,138.28 178.426295,127.37 190.219124,102.81 C190.219124,102.81 200.657371,117.6 195.209163,149.66 C187.051793,198.11 230.537849,184.25 231.215139,184.92 C246.404382,202.88 218.635458,234.44 216.942231,235.43 C215.258964,236.4 296.25498,186.52 238.715139,111.45 C234.770916,115.4 229.651394,133.98 218.994024,131.24 C208.336653,128.51 252.061753,76.64 174.35259,14.54 Z"/><path id="d58dH61qXW" d="M72.5597811,7.32 C72.5697211,10.47 68.8844622,14.74 62.0916335,21.75 C33.7250996,49.16 19.4621514,82.73 19.561753,123.23 C19.6613546,168.02 34.6713147,204 63.8346614,231.88 C69.9601594,237.38 72.4800797,241.71 72.4900398,245.41 C72.4900398,247.23 71.2450199,249.12 69.9900398,250.94 C68.814741,252.2 66.314741,253.470009 64.501992,253.470009 C57.7589641,253.48 48.3167331,245.47 35.9860558,229.89 C11.9820717,200.35 1.12549801,167.73 0.517928287,123.27 C-0.0498007968,78.79 13.8446215,48.63 41.0358566,17.49 C50.8167331,6.36 58.9741036,0.58 64.5418327,0.569880957 C66.3446215,0.56 68.2270916,1.18 70.0398406,2.44 C71.2948207,3.69 72.5597811,5.5 72.5597811,7.32 Z"/></g></g></g></svg>