<?xml version="1.0" encoding="UTF-8" standalone="no"?>
<svg width="400px" height="47px" viewBox="0 0 400 47" version="1.1" xmlns="http://www.w3.org/2000/svg" xmlns:xlink="http://www.w3.org/1999/xlink">
    <!-- Generator: Sketch 3.8.3 (29802) - http://www.bohemiancoding.com/sketch -->
    <title>freeCodeCamp</title>
    <desc>Created with Sketch.</desc>
    <defs></defs>
    <g id="Page-1" stroke="none" stroke-width="1" fill="none" fill-rule="evenodd">
        <g id="freeCodeCamp" fill="#FFFFFF">
            <path d="M5.45126354,14.4765343 L1.94945848,14.4765343 C0.758122744,14.4765343 0.108303249,13.9350181 0.108303249,12.9602888 C0.108303249,11.8772563 0.758122744,11.4440433 1.94945848,11.4440433 L5.45126354,11.4440433 L5.45126354,8.37545126 C5.45126354,3.03249097 8.19494585,0.397111913 13.5379061,0.397111913 C15.7039711,0.397111913 17.5812274,0.83032491 18.9891697,1.58844765 C20.8303249,2.67148014 21.8411552,4.44043321 21.8411552,6.49819495 C21.8411552,7.90613718 21.299639,8.44765343 20.3249097,8.44765343 C19.6750903,8.44765343 19.0252708,8.01444043 18.700361,7.25631769 C18.267148,5.84837545 17.833935,5.09025271 17.6173285,4.72924188 C16.967509,3.97111913 15.66787,3.53790614 13.7906137,3.53790614 C10.5054152,3.53790614 8.88086643,5.16245487 8.88086643,8.44765343 L8.88086643,11.4079422 L15.198556,11.4079422 C16.6064982,11.4079422 17.2563177,11.9494585 17.2563177,12.9241877 C17.2563177,14.0072202 16.6064982,14.4404332 15.198556,14.4404332 L8.88086643,14.4404332 L8.88086643,34.4043321 C8.88086643,35.5956679 8.33935018,36.2454874 7.36462094,36.2454874 C6.28158845,36.2454874 5.84837545,35.5956679 5.84837545,34.4043321 L5.84837545,14.4404332 L5.45126354,14.4404332 L5.45126354,14.4765343 Z" id="path5"></path>
            <path d="M33.8267148,32.6714801 L33.8267148,14.4404332 L29.133574,14.4404332 C27.833935,14.4404332 27.1841155,13.898917 27.1841155,12.9241877 C27.1841155,11.8411552 27.833935,11.4079422 29.133574,11.4079422 L35.4512635,11.4079422 C36.534296,11.4079422 37.0758123,12.3826715 37.0758123,14.1516245 C39.0252708,12.0938628 41.1191336,10.866426 43.2851986,10.866426 C45.1263538,10.866426 46.5703971,11.4079422 47.5451264,12.4909747 C48.6281588,13.5740072 49.0613718,15.1263538 49.0613718,16.8592058 C49.0613718,18.0505415 48.5198556,18.700361 47.5451264,18.700361 C46.8953069,18.700361 46.4620939,18.267148 46.2454874,17.5090253 C45.8122744,15.9927798 45.5956679,15.234657 45.4873646,15.1263538 C45.0541516,14.368231 44.1877256,13.9350181 43.1046931,13.9350181 C41.9133574,13.9350181 40.7220217,14.368231 39.7111913,15.234657 C39.0613718,15.66787 38.1949458,16.6425993 37.0758123,18.0866426 L37.0758123,32.7075812 L42.9602888,32.7075812 C44.2599278,32.7075812 44.9097473,33.2490975 44.9097473,34.2238267 C44.9097473,35.3068592 44.2599278,35.8483755 42.9602888,35.8483755 L28.9891697,35.8483755 C27.6895307,35.8483755 27.0397112,35.3068592 27.0397112,34.33213 C27.0397112,33.2490975 27.6895307,32.8158845 28.9891697,32.8158845 L33.7906137,32.8158845 L33.7906137,32.6714801 L33.8267148,32.6714801 Z" id="path7"></path>
            <path d="M57.7256318,24.0794224 L57.7256318,27.5812274 C57.7256318,31.299639 60.3610108,33.1407942 65.7039711,33.1407942 C67.6534296,33.1407942 69.2057762,32.9241877 70.3971119,32.4909747 C71.0469314,32.2743682 72.1299639,31.732852 73.6823105,30.6498195 C74.6570397,29.7833935 75.3068592,29.3501805 75.631769,29.3501805 C76.4981949,29.3501805 76.9314079,29.7833935 76.9314079,30.7581227 C76.9314079,31.732852 76.2815884,32.7075812 74.9819495,33.7184116 C72.9241877,35.3429603 69.7472924,36.2454874 65.5956679,36.2454874 C58.3032491,36.2454874 54.5848375,33.3935018 54.5848375,27.6173285 L54.5848375,18.8808664 C54.5848375,16.9314079 55.3429603,15.1624549 56.8592058,13.7545126 C58.8086643,11.8050542 61.8772563,10.9025271 65.8122744,10.9025271 C72.9963899,10.9025271 76.4981949,14.5126354 76.4981949,21.5884477 C76.4981949,23.3212996 75.8483755,24.2238267 74.5487365,24.2238267 L57.7617329,24.2238267 L57.7617329,24.0794224 L57.7256318,24.0794224 Z M57.7256318,21.0108303 L73.3212996,21.0108303 C73.3212996,16.3176895 70.6859206,13.9350181 65.3429603,13.9350181 C63.3935018,13.9350181 61.6245487,14.368231 60.1083032,15.234657 C58.5920578,16.3176895 57.7256318,17.6173285 57.7256318,19.1696751 L57.7256318,21.0108303 L57.7256318,21.0108303 Z" id="path9"></path>
            <path d="M85.1263538,24.0794224 L85.1263538,27.5812274 C85.1263538,31.299639 87.7617329,33.1407942 93.1046931,33.1407942 C95.0541516,33.1407942 96.6064982,32.9241877 97.7978339,32.4909747 C98.4476534,32.2743682 99.5306859,31.732852 101.083032,30.6498195 C102.057762,29.7833935 102.707581,29.3501805 103.032491,29.3501805 C103.898917,29.3501805 104.33213,29.7833935 104.33213,30.7581227 C104.33213,31.732852 103.68231,32.7075812 102.382671,33.7184116 C100.32491,35.3429603 97.1480144,36.2454874 92.9963899,36.2454874 C85.7039711,36.2454874 81.9855596,33.3935018 81.9855596,27.6173285 L81.9855596,18.8808664 C81.9855596,16.9314079 82.7436823,15.1624549 84.2599278,13.7545126 C86.2093863,11.8050542 89.2779783,10.9025271 93.2129964,10.9025271 C100.397112,10.9025271 103.898917,14.5126354 103.898917,21.5884477 C103.898917,23.3212996 103.249097,24.2238267 101.949458,24.2238267 L85.1624549,24.2238267 L85.1624549,24.0794224 L85.1263538,24.0794224 Z M85.1263538,21.0108303 L100.722022,21.0108303 C100.722022,16.3176895 98.0866426,13.9350181 92.7436823,13.9350181 C90.7942238,13.9350181 89.0252708,14.368231 87.5090253,15.234657 C85.8844765,16.3176895 85.1263538,17.6173285 85.1263538,19.1696751 L85.1263538,21.0108303 L85.1263538,21.0108303 Z" id="path11"></path>
            <path d="M109.67509,26.1371841 L109.67509,12.4909747 C109.67509,5.30685921 113.357401,1.80505415 121.01083,1.80505415 C124.079422,1.80505415 126.462094,2.45487365 128.447653,3.75451264 C130.613718,5.37906137 131.732852,7.68953069 131.732852,10.5054152 C131.732852,11.8050542 131.191336,12.4548736 130.108303,12.4548736 C129.350181,12.4548736 128.808664,11.8050542 128.483755,10.5054152 C128.267148,9.42238267 127.833935,8.44765343 127.292419,7.4368231 C126.31769,5.70397112 124.223827,4.90974729 120.974729,4.90974729 C118.122744,4.90974729 116.173285,5.55956679 114.981949,6.96750903 C113.898917,8.26714801 113.249097,10.2527076 113.249097,13.1768953 L113.249097,24.5126354 C113.249097,27.4729242 113.898917,29.5306859 115.090253,30.8303249 C116.389892,32.2382671 118.375451,32.9963899 121.191336,32.9963899 C125.451264,32.9963899 127.942238,31.4801444 128.483755,28.5198556 C128.700361,27.4368231 128.808664,26.8953069 128.808664,26.7870036 C129.025271,26.1371841 129.458484,25.8122744 130.108303,25.8122744 C131.191336,25.8122744 131.732852,26.4620939 131.732852,27.7617329 C131.732852,30.5054152 130.649819,32.5631769 128.33935,34.1877256 C126.498195,35.3790614 124.187726,36.0288809 121.155235,36.0288809 C117.65343,36.0288809 114.945848,35.2707581 112.960289,33.6462094 C110.649819,32.1299639 109.67509,29.5306859 109.67509,26.1371841 L109.67509,26.1371841 L109.67509,26.1371841 Z" id="path13"></path>
            <path d="M136.714801,27.9783394 L136.714801,19.0252708 C136.714801,13.5740072 140.433213,10.8303249 147.725632,10.8303249 C155.018051,10.8303249 158.736462,13.5740072 158.736462,19.0252708 L158.736462,27.9783394 C158.736462,33.4296029 155.126354,36.1732852 147.942238,36.1732852 C140.32491,36.2815884 136.714801,33.5379061 136.714801,27.9783394 L136.714801,27.9783394 L136.714801,27.9783394 Z M155.487365,27.9783394 L155.487365,19.0252708 C155.487365,15.631769 152.851986,13.898917 147.509025,13.898917 C142.490975,13.898917 139.855596,15.631769 139.855596,19.0252708 L139.855596,27.9783394 C139.855596,31.3718412 142.490975,33.1046931 147.725632,32.9963899 C152.851986,33.1046931 155.487365,31.4801444 155.487365,27.9783394 L155.487365,27.9783394 Z" id="path15"></path>
            <path d="M182.635379,33.2129964 C181.119134,34.2960289 179.783394,35.0541516 178.700361,35.4873646 C177.509025,35.9205776 175.956679,36.1371841 174.223827,36.1371841 C171.263538,36.1371841 168.880866,35.4873646 167.039711,34.2960289 C164.981949,32.8880866 163.862816,30.7942238 163.862816,27.9783394 L163.862816,18.8086643 C163.862816,16.0649819 164.945848,14.0072202 166.931408,12.599278 C168.66426,11.4079422 171.083032,10.7581227 173.790614,10.7581227 C175.631769,10.7581227 177.184116,10.9747292 178.375451,11.4079422 C179.566787,11.8411552 180.902527,12.599278 182.310469,13.7906137 L182.310469,2.5631769 C182.310469,1.04693141 182.851986,0.288808664 183.826715,0.288808664 C184.909747,0.288808664 185.451264,1.04693141 185.451264,2.5631769 L185.451264,34.6570397 C185.451264,35.7400722 184.909747,36.2815884 183.935018,36.2815884 C183.285199,36.2815884 182.851986,35.9566787 182.743682,35.198556 C182.743682,34.6570397 182.635379,34.1155235 182.635379,33.2129964 L182.635379,33.2129964 L182.635379,33.2129964 Z M182.527076,29.6389892 L182.527076,17.0758123 C181.01083,15.9927798 179.67509,15.1263538 178.808664,14.801444 C177.509025,14.2599278 176.064982,14.0433213 174.548736,14.0433213 C172.599278,14.0433213 170.830325,14.368231 169.638989,15.1263538 C168.122744,16.101083 167.256318,17.5090253 167.256318,19.2779783 L167.256318,27.9061372 C167.256318,29.7472924 168.01444,31.1913357 169.638989,32.0577617 C170.938628,32.7075812 172.599278,33.1407942 174.65704,33.1407942 C176.281588,33.1407942 177.833935,32.9241877 179.025271,32.3826715 C180.036101,31.6967509 181.227437,30.8303249 182.527076,29.6389892 L182.527076,29.6389892 L182.527076,29.6389892 Z" id="path17"></path>
            <path d="M194.548736,24.0794224 L194.548736,27.5812274 C194.548736,31.299639 197.184116,33.1407942 202.527076,33.1407942 C204.476534,33.1407942 206.028881,32.9241877 207.220217,32.4909747 C207.870036,32.2743682 208.953069,31.732852 210.505415,30.6498195 C211.480144,29.7833935 212.129964,29.3501805 212.454874,29.3501805 C213.3213,29.3501805 213.754513,29.7833935 213.754513,30.7581227 C213.754513,31.732852 213.104693,32.7075812 211.805054,33.7184116 C209.747292,35.3429603 206.570397,36.2454874 202.418773,36.2454874 C195.126354,36.2454874 191.407942,33.3935018 191.407942,27.6173285 L191.407942,18.8808664 C191.407942,16.9314079 192.166065,15.1624549 193.68231,13.7545126 C195.631769,11.8050542 198.700361,10.9025271 202.635379,10.9025271 C209.819495,10.9025271 213.3213,14.5126354 213.3213,21.5884477 C213.3213,23.3212996 212.67148,24.2238267 211.371841,24.2238267 L194.584838,24.2238267 L194.584838,24.0794224 L194.548736,24.0794224 Z M194.548736,21.0108303 L210.144404,21.0108303 C210.144404,16.3176895 207.509025,13.9350181 202.166065,13.9350181 C200.216606,13.9350181 198.447653,14.368231 196.931408,15.234657 C195.306859,16.3176895 194.548736,17.6173285 194.548736,19.1696751 L194.548736,21.0108303 L194.548736,21.0108303 Z" id="path19"></path>
            <path d="M219.097473,26.1371841 L219.097473,12.4909747 C219.097473,5.30685921 222.815884,1.80505415 230.433213,1.80505415 C233.501805,1.80505415 235.884477,2.45487365 237.870036,3.75451264 C240.036101,5.37906137 241.155235,7.68953069 241.155235,10.5054152 C241.155235,11.8050542 240.613718,12.4548736 239.530686,12.4548736 C238.772563,12.4548736 238.231047,11.8050542 237.906137,10.5054152 C237.689531,9.42238267 237.256318,8.44765343 236.714801,7.4368231 C235.740072,5.70397112 233.646209,4.90974729 230.397112,4.90974729 C227.545126,4.90974729 225.595668,5.55956679 224.404332,6.96750903 C223.3213,8.26714801 222.67148,10.2527076 222.67148,13.1768953 L222.67148,24.5126354 C222.67148,27.4729242 223.3213,29.5306859 224.512635,30.8303249 C225.812274,32.2382671 227.797834,32.9963899 230.613718,32.9963899 C234.873646,32.9963899 237.364621,31.4801444 237.906137,28.5198556 C238.122744,27.4368231 238.231047,26.8953069 238.231047,26.7870036 C238.447653,26.1371841 238.880866,25.8122744 239.530686,25.8122744 C240.613718,25.8122744 241.155235,26.4620939 241.155235,27.7617329 C241.155235,30.5054152 240.072202,32.5631769 237.761733,34.1877256 C235.920578,35.3790614 233.610108,36.0288809 230.577617,36.0288809 C227.075812,36.0288809 224.368231,35.2707581 222.382671,33.6462094 C220.180505,32.1299639 219.097473,29.5306859 219.097473,26.1371841 L219.097473,26.1371841 L219.097473,26.1371841 Z" id="path21"></path>
            <path d="M263.718412,33.2129964 C262.202166,34.2960289 260.866426,35.1624549 260,35.4873646 C258.916968,35.9205776 257.472924,36.1371841 255.740072,36.1371841 C253.104693,36.1371841 250.938628,35.5956679 249.314079,34.5126354 C247.364621,33.2129964 246.353791,31.2274368 246.353791,28.7364621 C246.353791,26.2093863 247.436823,24.1516245 249.422383,22.8519856 C251.155235,21.5523466 253.465704,20.9025271 256.064982,20.9025271 C258.231047,20.9025271 260.649819,21.4440433 263.501805,22.4187726 L263.501805,18.5920578 C263.501805,16.7509025 262.635379,15.4151625 260.866426,14.6570397 C259.67509,14.1155235 258.122744,13.898917 256.389892,13.898917 C252.238267,13.898917 250.072202,14.9819495 249.638989,17.2924188 C249.422383,18.3754513 249.314079,18.8086643 249.314079,18.9169675 C249.097473,19.4584838 248.66426,19.6750903 248.01444,19.6750903 C246.931408,19.6750903 246.281588,19.0252708 246.281588,17.833935 C246.281588,16.2093863 246.931408,14.6570397 248.231047,13.2490975 C249.747292,11.5162455 252.707581,10.6137184 256.750903,10.6137184 C260.036101,10.6137184 262.310469,11.1552347 263.935018,12.1299639 C265.776173,13.4296029 266.787004,15.631769 266.787004,18.6642599 L266.787004,29.7833935 C266.787004,31.0830325 267.00361,31.9494585 267.545126,32.4187726 C267.65343,32.5270758 268.194946,32.7436823 269.061372,33.0685921 C269.602888,33.2851986 269.819495,33.7184116 269.819495,34.5848375 C269.819495,35.4512635 269.386282,35.8844765 268.411552,35.8844765 C268.194946,35.8844765 267.761733,35.7761733 267.00361,35.5595668 C265.812274,35.1263538 265.054152,34.9097473 264.837545,34.801444 C264.259928,34.765343 263.935018,34.1155235 263.718412,33.2129964 L263.718412,33.2129964 L263.718412,33.2129964 Z M263.610108,29.9638989 L263.610108,25.3790614 C261.227437,24.6209386 258.808664,24.1877256 256.750903,24.1877256 C252.057762,24.1877256 249.67509,25.7039711 249.67509,28.7725632 C249.67509,30.2888087 250.32491,31.6245487 251.732852,32.2743682 C252.815884,32.9241877 254.259928,33.2490975 255.99278,33.2490975 C257.509025,33.2490975 258.844765,33.032491 260.144404,32.3826715 C260.974729,31.9133574 262.202166,31.0469314 263.610108,29.9638989 L263.610108,29.9638989 L263.610108,29.9638989 Z" id="path23"></path>
            <path d="M275.920578,13.465704 C276.6787,12.4909747 277.436823,11.8411552 277.870036,11.5162455 C278.519856,11.0830325 279.386282,10.866426 280.613718,10.866426 C282.34657,10.866426 283.898917,11.732852 285.198556,13.6101083 C286.064982,12.5270758 286.823105,11.8772563 287.581227,11.5523466 C288.33935,11.1191336 289.422383,10.9025271 290.649819,10.9025271 C294.368231,10.9025271 296.31769,12.7436823 296.31769,16.3537906 L296.31769,34.0433213 C296.31769,35.5595668 295.776173,36.2093863 294.693141,36.2093863 C293.610108,36.2093863 293.176895,35.5595668 293.176895,34.0433213 L293.176895,17.4729242 C293.176895,15.198556 292.202166,13.9711191 290.32491,13.9711191 C288.916968,13.9711191 287.472924,14.8375451 286.281588,16.4981949 L286.281588,34.1877256 C286.281588,35.7039711 285.740072,36.3537906 284.765343,36.3537906 C283.790614,36.3537906 283.249097,35.7039711 283.249097,34.1877256 L283.249097,17.833935 C283.249097,15.3068592 282.166065,14.1155235 280.180505,14.1155235 C278.880866,14.1155235 277.65343,14.9819495 276.353791,16.6425993 L276.353791,34.2238267 C276.353791,35.7400722 275.812274,36.3898917 274.729242,36.3898917 C273.646209,36.3898917 273.212996,35.7400722 273.212996,34.2238267 L273.212996,12.5270758 C273.212996,11.4440433 273.646209,11.0108303 274.512635,11.0108303 C274.945848,11.0108303 275.379061,11.3357401 275.595668,11.9855596 C275.812274,12.2743682 275.920578,12.8158845 275.920578,13.465704 L275.920578,13.465704 L275.920578,13.465704 Z" id="path25"></path>
            <path d="M304.296029,13.465704 C306.6787,11.732852 309.638989,10.8303249 312.815884,10.8303249 C319.458484,10.8303249 322.743682,13.6823105 322.743682,19.133574 L322.743682,28.1949458 C322.743682,30.8303249 321.768953,32.7797834 319.891697,34.2960289 C318.267148,35.5956679 315.956679,36.2454874 313.140794,36.2454874 C309.747292,36.2454874 306.823105,35.3790614 304.296029,33.5018051 L304.296029,43.7545126 C304.296029,45.2707581 303.754513,46.1371841 302.779783,46.1371841 C301.805054,46.1371841 301.263538,45.3790614 301.263538,43.7545126 L301.263538,13.1046931 C301.263538,11.5884477 301.696751,10.7220217 302.563177,10.7220217 C302.99639,10.7220217 303.429603,11.0469314 303.754513,11.6967509 C303.862816,12.2743682 304.187726,12.9241877 304.296029,13.465704 L304.296029,13.465704 L304.296029,13.465704 Z M304.296029,30.0722022 C306.570397,32.0216606 309.314079,33.1407942 312.599278,33.1407942 C314.548736,33.1407942 316.209386,32.8158845 317.400722,32.0577617 C318.916968,31.1913357 319.566787,29.8916968 319.566787,28.2310469 L319.566787,19.1696751 C319.566787,17.2202166 318.808664,15.8844765 317.184116,15.0180505 C315.99278,14.368231 314.33213,14.0433213 312.274368,14.0433213 C310.433213,14.0433213 308.98917,14.2599278 307.797834,14.801444 C306.714801,15.234657 305.631769,16.2093863 304.187726,17.6534296 L304.187726,30.1083032 L304.296029,30.1083032 L304.296029,30.0722022 Z" id="path27"></path>
            <path d="M333.537906,21.4440433 C333.537906,14.5848375 335.920578,8.44765343 340.722022,2.99638989 C342.454874,1.04693141 343.898917,0.036101083 344.873646,0.036101083 C345.198556,0.036101083 345.523466,0.144404332 345.848375,0.36101083 C346.064982,0.577617329 346.281588,0.902527076 346.281588,1.22743682 C346.281588,1.76895307 345.631769,2.52707581 344.440433,3.75451264 C339.422383,8.55595668 336.895307,14.4404332 336.895307,21.5523466 C336.895307,29.4223827 339.530686,35.7400722 344.65704,40.6498195 C345.740072,41.6245487 346.173285,42.3826715 346.173285,43.032491 C346.173285,43.3574007 345.956679,43.6823105 345.740072,44.0072202 C345.523466,44.2238267 345.090253,44.4404332 344.765343,44.4404332 C343.574007,44.4404332 341.913357,43.032491 339.747292,40.2888087 C335.523466,35.0902527 333.537906,28.8808664 333.537906,21.4440433 L333.537906,21.4440433 L333.537906,21.4440433 Z" id="path29"></path>
            <path d="M399.67509,23.1768953 C399.67509,30.0361011 397.292419,36.1732852 392.490975,41.6245487 C390.758123,43.5740072 389.314079,44.5848375 388.33935,44.5848375 C388.01444,44.5848375 387.689531,44.4765343 387.364621,44.2599278 C387.148014,44.0433213 386.931408,43.6101083 386.931408,43.2851986 C386.931408,42.7436823 387.581227,41.9855596 388.772563,40.9025271 C393.790614,36.101083 396.31769,30.2166065 396.31769,23.1046931 C396.31769,15.234657 393.68231,8.91696751 388.555957,4.00722022 C387.472924,3.03249097 387.039711,2.27436823 387.039711,1.62454874 C387.039711,1.29963899 387.256318,0.974729242 387.472924,0.649819495 C387.689531,0.433212996 388.122744,0.216606498 388.447653,0.216606498 C389.530686,0.216606498 391.299639,1.62454874 393.465704,4.36823105 C397.472924,9.566787 399.67509,15.7761733 399.67509,23.1768953 L399.67509,23.1768953 L399.67509,23.1768953 Z" id="path31"></path>
            <g id="g33" transform="translate(348.788249, 38.744704)">
                <path d="M32.9737231,4.33627044 L2.71016903,4.33627044 C1.62610142,4.33627044 0.813050708,3.52321973 0.813050708,2.43915212 C0.813050708,1.35508451 1.62610142,0.542033805 2.71016903,0.542033805 L32.9737231,0.542033805 C34.0577908,0.542033805 34.8708415,1.35508451 34.8708415,2.43915212 C34.5998246,3.52321973 34.0577908,4.33627044 32.9737231,4.33627044 L32.9737231,4.33627044 Z" id="path37"></path>
            </g>
            <path d="M360.180505,3.75451264 C360.180505,3.75451264 362.707581,5.48736462 362.707581,8.66425993 C362.707581,14.1155235 355.270758,20.1083032 355.270758,25.7761733 C355.270758,31.8772563 359.963899,35.8122744 364.440433,37.0036101 C365.090253,37.1119134 365.306859,36.4620939 364.548736,36.2454874 C362.707581,35.8122744 360.722022,33.3935018 360.722022,29.7111913 C360.722022,26.2093863 364.115523,24.9097473 365.415162,23.2851986 C366.823105,21.5523466 366.498195,19.3501805 365.631769,18.700361 C364.765343,18.0505415 365.415162,17.1841155 366.823105,18.267148 C368.231047,19.2418773 369.458484,21.2274368 368.98917,22.9602888 C368.447653,25.234657 369.205776,26.5703971 370.397112,26.7870036 C371.588448,27.0036101 372.924188,26.3537906 372.779783,25.2707581 C372.635379,24.1877256 372.021661,22.9963899 372.34657,22.9963899 C373.212996,22.9963899 374.981949,25.0541516 374.981949,28.4476534 C374.981949,31.8411552 372.238267,34.1155235 371.371841,34.9819495 C370.830325,35.5234657 371.480144,36.1732852 372.238267,35.8483755 C372.563177,35.7400722 373.3213,35.3068592 373.754513,34.9819495 C375.920578,33.465704 379.314079,30.2888087 379.314079,24.5126354 C379.314079,18.4115523 377.039711,15.66787 374.620939,13.3935018 C372.238267,11.1191336 371.66065,11.6606498 372.34657,12.8519856 C374.296029,16.2454874 373.104693,17.4368231 371.696751,17.4368231 C369.963899,17.4368231 369.963899,13.6101083 369.169675,10.6859206 C367.761733,4.15162455 361.732852,3.03249097 360.649819,2.92418773 C359.855596,2.5631769 358.844765,3.21299639 360.180505,3.75451264 L360.180505,3.75451264 Z" id="Shape"></path>
        </g>
    </g>
</svg>